<svg xmlns="http://www.w3.org/2000/svg" viewBox="0 0 32 32" width="32" height="32" color="#2B3A48">
<polygon points="24,8.8 19,11.69 19,16.64 14,19.52 14,24.47 24,18.7" fill="#6E7F90" stroke="#0696D7" stroke-width="1.6" stroke-linejoin="round"/>
<polygon points="4,13.75 14,19.52 14,24.47 4,18.7" fill="#AAB7C4" stroke="#0696D7" stroke-width="1.6" stroke-linejoin="round"/>
<polygon points="9,10.86 19,16.64 14,19.52 4,13.75" fill="#DDE6EE" stroke="#0696D7" stroke-width="1.6" stroke-linejoin="round"/>
<polygon points="9,5.91 19,11.69 19,16.64 9,10.86" fill="#AAB7C4" stroke="#0696D7" stroke-width="1.6" stroke-linejoin="round"/>
<polygon points="14,3.03 24,8.8 19,11.69 9,5.91" fill="#DDE6EE" stroke="#0696D7" stroke-width="1.6" stroke-linejoin="round"/>
<polygon points="19.5,16.2 19.5,28.44 22.56,25.58 24.8,30.07 26.84,29.05 24.6,24.67 28.48,24.67" fill="#FFFFFF" stroke="#2B3A48" stroke-width="1.1" stroke-linejoin="round"/>
</svg>
