<svg xmlns="http://www.w3.org/2000/svg" width="1080" height="1350" viewBox="0 0 1080 1350"><defs>
  <pattern id="grid" width="36" height="36" patternUnits="userSpaceOnUse">
    <path d="M36 0H0V36" fill="none" stroke="#9fc0dc" stroke-opacity=".38" stroke-width="1.2"/>
  </pattern>
  <filter id="rough" x="-10%" y="-10%" width="120%" height="120%">
    <feTurbulence type="fractalNoise" baseFrequency="0.035" numOctaves="2" seed="7"/>
    <feDisplacementMap in="SourceGraphic" scale="7"/>
  </filter>
  <filter id="shadow" x="-10%" y="-10%" width="130%" height="130%">
    <feDropShadow dx="4" dy="10" stdDeviation="10" flood-color="#3a2f1e" flood-opacity=".28"/>
  </filter>
  <symbol id="penguin" viewBox="0 0 64 64">
    <path d="M30.5 7.5c9.8 0 15.9 7.6 16.6 17.2.5 7 3.4 11.4 3.4 18.3 0 9.6-7.9 15.5-18.5 15.5S13.6 52.4 13.6 42.4c0-6.2 2.6-10.6 2.6-17.4C16.2 14.9 21.6 7.5 30.5 7.5z" fill="#0E1722"/>
    <path d="M33.8 14.6c5.6.4 8.6 4.6 9 10.2.4 6.2 3.4 10 3.4 17 0 7.4-5.6 11.9-13.3 11.9-7.4 0-12.4-4.4-12.4-11.3 0-6.5 3.6-9.8 4.4-15.6.9-7.3 3.4-12.6 8.9-12.2z" fill="#F4F7FA"/>
    <path d="M40.6 20.2 52.8 23.6 40.9 26.9c-1.4-2.2-1.5-4.4-.3-6.7z" fill="#FF9F43"/>
    <circle cx="35.6" cy="20.4" r="2.3" fill="#0E1722"/>
    <circle cx="36.3" cy="19.7" r=".75" fill="#F4F7FA"/>
    <path d="M22 58.6h19.5" stroke="#FF9F43" stroke-width="3.2" stroke-linecap="round"/>
  </symbol>
</defs><rect width="1080" height="1350" fill="#f7f3ea"/><rect width="1080" height="1350" fill="url(#grid)"/><path d="M104 0V1350" stroke="#e39a9a" stroke-width="2.5" stroke-opacity=".7"/>
<text x="140" y="200" font-size="110" style="font-family:Caveat;font-weight:700" fill="#1e2a36" text-anchor="start">try it tonight:</text>
<path d="M140 232 C314.0 238 546.0 227 720 235" fill="none" stroke="#f07818" stroke-width="8" stroke-linecap="round" stroke-opacity=".85" filter="url(#rough)"/>
<g transform="rotate(-2 540 520)" filter="url(#shadow)"><rect x="120" y="400" width="840" height="240" rx="6" fill="#16202b"/><text x="160" y="470" font-size="36" style="font-family:'B612 Mono'" fill="#e6eef5" text-anchor="start">$ curl -fsSL \</text><text x="190" y="530" font-size="36" style="font-family:'B612 Mono'" fill="#7cc6ea" text-anchor="start">kaiyao7572-creator.github.io/</text><text x="190" y="590" font-size="36" style="font-family:'B612 Mono'" fill="#7cc6ea" text-anchor="start">PenguinCAD/install.sh | sh</text></g>
<rect x="100.0" y="380" width="140" height="40" fill="#efe2b8" fill-opacity=".78" stroke="#d6c48f" stroke-opacity=".5" transform="rotate(-18 170 400)"/>
<rect x="840.0" y="375" width="140" height="40" fill="#efe2b8" fill-opacity=".78" stroke="#d6c48f" stroke-opacity=".5" transform="rotate(14 910 395)"/>
<text x="150" y="780.0" font-size="46" style="font-family:'Patrick Hand'" fill="#1f67a8" text-anchor="start">works on most linux distros,</text><text x="150" y="839.8" font-size="46" style="font-family:'Patrick Hand'" fill="#1f67a8" text-anchor="start">and it updates itself.</text>
<text x="150" y="1000" font-size="76" style="font-family:Caveat;font-weight:700" fill="#f07818" text-anchor="start" transform="rotate(-3 150 1000)">then tell me what breaks!!</text>
<text x="640" y="1150" font-size="72" style="font-family:Caveat;font-weight:700" fill="#1e2a36" text-anchor="start" transform="rotate(2 640 1150)">link in bio</text>
<g fill="none" stroke="#1e2a36" stroke-width="5" stroke-linecap="round" stroke-linejoin="round" filter="url(#rough)"><path d="M600 1135 C 560 1110, 540 1080, 540 1050"/><path d="M554 1072 L540 1046 L526 1072"/></g>
<g transform="rotate(10 945.0 155.0)" filter="url(#shadow)"><circle cx="945.0" cy="155.0" r="65.0" fill="#fff"/><circle cx="945.0" cy="155.0" r="57.0" fill="#2aa7e8"/><use href="#penguin" x="898.2" y="105.6" width="93.6" height="93.6"/></g>
<text x="140" y="1290" font-size="44" style="font-family:Caveat;font-weight:700" fill="#1e2a36" text-anchor="start">penguincad</text><text x="1010" y="1290" font-size="44" style="font-family:Caveat;font-weight:500" fill="#8a8171" text-anchor="end">6/6</text></svg>